<svg width="151" height="22" viewBox="0 0 151 22" fill="none" xmlns="http://www.w3.org/2000/svg">
<path d="M24.8783 7.9597V5.49951H32.6123V7.9597H29.9947V16.5002H27.4759V7.9597H24.8783Z" fill="white"/>
<path d="M39.3424 5.49974H35.5046V16.5002H38.0237V13.017H39.3227C41.1921 12.997 43.1597 11.9542 43.1597 9.23871C43.1597 6.93632 41.5265 5.49974 39.3424 5.49974ZM39.1063 10.695H38.0434V7.82178H39.0467C39.8734 7.82178 40.7593 8.11704 40.7593 9.23871C40.7593 10.2026 40.1881 10.695 39.1063 10.695Z" fill="white"/>
<path opacity="0.5" d="M50.156 5.49944H47.6373V16.5002H50.156V5.49944Z" fill="white"/>
<path opacity="0.5" d="M62.9273 7.48722L61.1567 9.2388C60.8942 8.76069 60.5061 8.36325 60.0345 8.08928C59.5628 7.8153 59.0253 7.67516 58.4799 7.68395C56.6897 7.68395 55.41 8.98289 55.41 11.0298C55.41 13.1153 56.709 14.3158 58.4997 14.3158C59.053 14.3253 59.5988 14.186 60.08 13.9126C60.5612 13.6392 60.9602 13.2416 61.2353 12.7613L63.0066 14.5125C62.4615 15.1955 61.7656 15.7429 60.9734 16.1116C60.1813 16.4804 59.3144 16.6605 58.4409 16.6378C55.1936 16.6378 52.8518 14.4734 52.8518 11.0298C52.8211 10.2856 52.9433 9.54301 53.2111 8.84798C53.4788 8.15294 53.8863 7.52023 54.4083 6.98896C54.9303 6.4577 55.5558 6.03919 56.246 5.75932C56.9362 5.47944 57.6765 5.34416 58.4211 5.36183C59.2901 5.31045 60.1581 5.47812 60.9455 5.84948C61.7328 6.22083 62.4143 6.78397 62.9273 7.48722" fill="white"/>
<path opacity="0.5" d="M69.2836 5.34218L63.8727 16.5002H66.4108L67.198 14.7486H71.2713L72.0779 16.5002H74.6755L69.2836 5.34218ZM68.1029 12.7415L69.2248 10.2815L70.3464 12.7415H68.1029Z" fill="white"/>
<path opacity="0.5" d="M80.4613 5.49982H76.6241V16.5002H79.1426V13.0167H80.4415C82.311 12.9974 84.2794 11.9546 84.2794 9.23877C84.2794 6.936 82.6453 5.49982 80.4613 5.49982ZM80.2252 10.6947H79.1626V7.82185H80.1664C80.9931 7.82185 81.8782 8.11675 81.8782 9.23877C81.8782 10.2027 81.3077 10.6947 80.2252 10.6947Z" fill="white"/>
<path d="M22 11.0541L21.9989 11.0651L21.9957 11.0752L21.9908 11.0845L21.9842 11.0924L16.5656 16.4383C16.5454 16.4585 16.5215 16.4745 16.4952 16.4854C16.4689 16.4963 16.4406 16.5019 16.4121 16.5019L5.55638 16.502C5.54926 16.502 5.5422 16.5006 5.53561 16.4979C5.52902 16.4952 5.52303 16.4912 5.51799 16.4862C5.51294 16.4811 5.50894 16.4752 5.50621 16.4686C5.50349 16.462 5.50209 16.4549 5.50209 16.4478L5.50312 16.4369L5.50629 16.4265L5.51134 16.4175L5.518 16.4094L11.0001 11L21.9457 10.9998C21.9601 10.9999 21.9739 11.0056 21.9841 11.0157C21.9943 11.0259 22 11.0397 22 11.0541Z" fill="url(#paint0_linear_5_9)"/>
<path d="M11 11L5.59058 5.51779L5.5826 5.51123L5.57348 5.50619L5.56319 5.50302L5.55243 5.50188C5.53803 5.50188 5.52422 5.5076 5.51404 5.51779C5.50386 5.52797 5.49814 5.54178 5.49814 5.55618V16.412C5.4981 16.4405 5.50369 16.4687 5.51459 16.495C5.52549 16.5214 5.54149 16.5453 5.56166 16.5654L10.9076 21.9841L10.9156 21.9906L10.9249 21.9957L10.935 21.9989L10.9459 22C10.953 22 10.9601 21.9986 10.9667 21.9959C10.9733 21.9932 10.9793 21.9892 10.9843 21.9841C10.9894 21.9791 10.9934 21.9731 10.9961 21.9665C10.9988 21.9599 11.0002 21.9528 11.0002 21.9457L11 11Z" fill="url(#paint1_linear_5_9)"/>
<path d="M11 11L0.0542737 11.0001C0.0398997 11.0001 0.0261258 10.9943 0.01598 10.9842C0.00583415 10.974 0.000146718 10.9602 0.000167906 10.9458L0.0011939 10.9348L0.00439174 10.9247L0.00941353 10.9154L0.016077 10.9074L5.43461 5.56163C5.45471 5.54144 5.4786 5.52542 5.50492 5.5145C5.53124 5.50358 5.55945 5.49797 5.58794 5.498H16.4438C16.451 5.49799 16.458 5.49939 16.4646 5.5021C16.4712 5.50482 16.4772 5.50881 16.4822 5.51385C16.4873 5.51888 16.4913 5.52486 16.494 5.53144C16.4967 5.53802 16.4981 5.54507 16.4981 5.5522L16.497 5.56306L16.4938 5.57332L16.4889 5.58244L16.4822 5.59055L11 11Z" fill="url(#paint2_linear_5_9)"/>
<path d="M16.502 5.58791C16.5021 5.5594 16.4965 5.53117 16.4856 5.50483C16.4747 5.47849 16.4587 5.45457 16.4385 5.43445L11.0926 0.0158065L11.0846 0.00922286L11.0754 0.00420101L11.0651 0.00100894L11.0542 0C11.0399 1.51114e-06 11.0261 0.00571122 11.0159 0.0158736C11.0058 0.0260359 11 0.0398188 11 0.0541913V11L16.4095 16.4821L16.4176 16.4888L16.4269 16.4937L16.437 16.4969L16.448 16.4981C16.4623 16.4981 16.4761 16.4923 16.4863 16.4822C16.4965 16.472 16.5022 16.4582 16.5023 16.4438L16.502 5.58791Z" fill="url(#paint3_linear_5_9)"/>
<path d="M92.3369 16.498V6.13H98.7529V7.938H94.5449V10.306H97.5049V12.114H94.5449V14.674H98.9449V16.498H92.3369ZM109.464 16.658L102.856 10.546V16.498H100.712V5.97H100.872L107.48 12.066V6.13H109.624V16.658H109.464ZM111.962 16.498V6.13H118.378V7.938H114.17V10.306H117.13V12.114H114.17V14.674H118.57V16.498H111.962ZM120.337 16.498V6.13H123.665C124.902 6.13 125.9 6.36467 126.657 6.834C127.414 7.30333 127.793 8.19933 127.793 9.522C127.793 11.218 127.148 12.2633 125.857 12.658L128.465 16.498H125.809L123.569 12.962H122.545V16.498H120.337ZM122.529 11.186H123.105C123.958 11.186 124.572 11.0793 124.945 10.866C125.329 10.642 125.521 10.1993 125.521 9.538C125.489 8.834 125.302 8.386 124.961 8.194C124.63 8.002 124.076 7.906 123.297 7.906H122.529V11.186ZM129.358 11.282C129.358 9.682 129.854 8.39667 130.846 7.426C131.849 6.45533 133.155 5.97 134.766 5.97C135.555 5.97 136.254 6.07667 136.862 6.29C137.491 6.50333 137.902 6.68467 138.094 6.834V8.962C137.102 8.29 136.046 7.954 134.926 7.954C133.987 7.954 133.198 8.25267 132.558 8.85C131.929 9.43667 131.614 10.2367 131.614 11.25C131.614 12.2953 131.902 13.1273 132.478 13.746C133.065 14.354 133.817 14.658 134.734 14.658C135.502 14.658 136.099 14.4713 136.526 14.098C136.963 13.714 137.203 13.154 137.246 12.418H134.462V10.674H139.422V11.042C139.422 12.7807 139.081 14.1513 138.398 15.154C137.715 16.1567 136.489 16.658 134.718 16.658C133.555 16.658 132.558 16.4127 131.726 15.922C130.905 15.4207 130.302 14.7753 129.918 13.986C129.545 13.186 129.358 12.2847 129.358 11.282ZM143.465 16.498V12.386L139.753 6.13H142.185L144.601 10.53L147.033 6.13H149.401L145.657 12.386V16.498H143.465Z" fill="white"/>
<defs>
<linearGradient id="paint0_linear_5_9" x1="6.317" y1="13.7509" x2="22.8149" y2="13.7509" gradientUnits="userSpaceOnUse">
<stop stop-color="white" stop-opacity="0"/>
<stop offset="0.06285" stop-color="white" stop-opacity="0.14479"/>
<stop offset="0.16011" stop-color="white" stop-opacity="0.34321"/>
<stop offset="0.26211" stop-color="white" stop-opacity="0.51923"/>
<stop offset="0.36683" stop-color="white" stop-opacity="0.66751"/>
<stop offset="0.475" stop-color="white" stop-opacity="0.78829"/>
<stop offset="0.58781" stop-color="white" stop-opacity="0.8818"/>
<stop offset="0.70718" stop-color="white" stop-opacity="0.94814"/>
<stop offset="0.83764" stop-color="white" stop-opacity="0.98748"/>
<stop offset="1" stop-color="white"/>
</linearGradient>
<linearGradient id="paint1_linear_5_9" x1="8.24912" y1="23.7106" x2="8.24912" y2="5.48977" gradientUnits="userSpaceOnUse">
<stop stop-color="white" stop-opacity="0"/>
<stop offset="0.06285" stop-color="white" stop-opacity="0.14479"/>
<stop offset="0.16011" stop-color="white" stop-opacity="0.34321"/>
<stop offset="0.26211" stop-color="white" stop-opacity="0.51923"/>
<stop offset="0.36683" stop-color="white" stop-opacity="0.66751"/>
<stop offset="0.475" stop-color="white" stop-opacity="0.78829"/>
<stop offset="0.58781" stop-color="white" stop-opacity="0.8818"/>
<stop offset="0.70718" stop-color="white" stop-opacity="0.94814"/>
<stop offset="0.83764" stop-color="white" stop-opacity="0.98748"/>
<stop offset="1" stop-color="white"/>
</linearGradient>
<linearGradient id="paint2_linear_5_9" x1="-1.47442" y1="8.24905" x2="15.0235" y2="8.24905" gradientUnits="userSpaceOnUse">
<stop stop-color="white" stop-opacity="0"/>
<stop offset="0.06285" stop-color="white" stop-opacity="0.14479"/>
<stop offset="0.16011" stop-color="white" stop-opacity="0.34321"/>
<stop offset="0.26211" stop-color="white" stop-opacity="0.51923"/>
<stop offset="0.36683" stop-color="white" stop-opacity="0.66751"/>
<stop offset="0.475" stop-color="white" stop-opacity="0.78829"/>
<stop offset="0.58781" stop-color="white" stop-opacity="0.8818"/>
<stop offset="0.70718" stop-color="white" stop-opacity="0.94814"/>
<stop offset="0.83764" stop-color="white" stop-opacity="0.98748"/>
<stop offset="1" stop-color="white"/>
</linearGradient>
<linearGradient id="paint3_linear_5_9" x1="13.7511" y1="15.6002" x2="13.7511" y2="0.969669" gradientUnits="userSpaceOnUse">
<stop stop-color="white" stop-opacity="0"/>
<stop offset="0.06285" stop-color="white" stop-opacity="0.14479"/>
<stop offset="0.16011" stop-color="white" stop-opacity="0.34321"/>
<stop offset="0.26211" stop-color="white" stop-opacity="0.51923"/>
<stop offset="0.36683" stop-color="white" stop-opacity="0.66751"/>
<stop offset="0.475" stop-color="white" stop-opacity="0.78829"/>
<stop offset="0.58781" stop-color="white" stop-opacity="0.8818"/>
<stop offset="0.70718" stop-color="white" stop-opacity="0.94814"/>
<stop offset="0.83764" stop-color="white" stop-opacity="0.98748"/>
<stop offset="1" stop-color="white"/>
</linearGradient>
</defs>
</svg>
