<svg xmlns="http://www.w3.org/2000/svg" viewBox="0 0 36 36" width="36" height="36"> <path class="coh-inline-element coh-ce-cpt_footer-5e4164ef" d="M13.548 27.752c9.057 0 14.01-7.503 14.01-14.01 0-.213-.005-.425-.014-.636.961-.695 1.797-1.562 2.456-2.55-.882.392-1.832.657-2.828.776 1.017-.61 1.797-1.574 2.165-2.724-.951.564-2.004.974-3.126 1.195-.899-.957-2.178-1.555-3.594-1.555-2.72 0-4.925 2.205-4.925 4.923 0 .387.043.762.128 1.123-4.092-.206-7.721-2.165-10.15-5.145-.423.728-.666 1.573-.666 2.475 0 1.708.869 3.216 2.19 4.099-.807-.025-1.566-.247-2.23-.616v.063c0 2.385 1.697 4.375 3.95 4.827-.414.112-.849.173-1.298.173-.317 0-.626-.031-.926-.089.627 1.957 2.445 3.38 4.6 3.42-1.685 1.321-3.808 2.108-6.115 2.108-.398 0-.79-.023-1.175-.068 2.18 1.396 4.767 2.211 7.548 2.211" fill-rule="evenodd"></path> </svg>
