<svg width="18" height="18" viewBox="0 0 18 18" fill="none" xmlns="http://www.w3.org/2000/svg">
<path d="M5.85449 6.05004V3.71802H7.30035M15.3691 3.71802H16.815V6.05004" stroke="black" stroke-width="0.435756"/>
<rect x="0.662214" y="6.08189" width="16.8212" height="11.3643" stroke="black" stroke-width="0.435756"/>
<rect x="2.90147" y="7.34117" width="2.87571" height="8.70575" stroke="black" stroke-width="0.435756"/>
<rect x="7.28526" y="8.13365" width="8.05278" height="2.87571" stroke="black" stroke-width="0.435756"/>
<rect x="7.28526" y="0.764509" width="8.05278" height="5.25439" stroke="black" stroke-width="0.435756"/>
<rect x="7.65332" y="13.5046" width="1.48336" height="0.654059" fill="black"/>
<rect x="7.65332" y="12.0391" width="1.48336" height="0.654059" fill="black"/>
<rect x="7.65332" y="15.0488" width="1.48336" height="0.654059" fill="black"/>
<rect x="10.6338" y="13.5046" width="1.48336" height="0.654059" fill="black"/>
<rect x="10.6338" y="12.0391" width="1.48336" height="0.654059" fill="black"/>
<rect x="8.39551" y="3.71802" width="5.7332" height="0.654059" fill="black"/>
<rect x="8.39551" y="2.25269" width="5.7332" height="0.654059" fill="black"/>
<rect x="10.6338" y="15.0488" width="1.48336" height="0.654059" fill="black"/>
<rect x="13.4863" y="13.5046" width="1.48336" height="0.654059" fill="black"/>
<rect x="13.4863" y="12.0391" width="1.48336" height="0.654059" fill="black"/>
<rect x="13.4863" y="15.0488" width="1.48336" height="0.654059" fill="black"/>
</svg>
