<svg width="30" height="24" viewBox="0 0 30 24" fill="none" xmlns="http://www.w3.org/2000/svg">
<path fill-rule="evenodd" clip-rule="evenodd" d="M9.28794 24C20.4327 24 26.5275 14.7674 26.5275 6.76046C26.5275 6.49836 26.5213 6.23749 26.5103 5.97785C27.6928 5.12264 28.7215 4.05578 29.5324 2.84003C28.4471 3.32239 27.2781 3.64848 26.0525 3.79491C27.3039 3.0443 28.2637 1.85808 28.7166 0.442986C27.5463 1.137 26.2506 1.64151 24.87 1.91345C23.7637 0.735849 22.1899 0 20.4475 0C17.1005 0 14.3872 2.71329 14.3872 6.05783C14.3872 6.53404 14.4401 6.99549 14.5447 7.4397C9.50943 7.18622 5.04389 4.77564 2.05496 1.1087C1.53445 2.00451 1.23544 3.0443 1.23544 4.15422C1.23544 6.25595 2.30476 8.11157 3.93027 9.19811C2.93724 9.16735 2.00328 8.89417 1.18622 8.44011V8.51764C1.18622 11.4524 3.2744 13.9011 6.04676 14.4573C5.53733 14.5952 5.00205 14.6702 4.44955 14.6702C4.05948 14.6702 3.67924 14.6321 3.31009 14.5607C4.08162 16.9688 6.3187 18.7198 8.97047 18.7691C6.89705 20.3946 4.28466 21.363 1.44586 21.363C0.956112 21.363 0.473749 21.3347 0 21.2793C2.68253 22.9971 5.86587 24 9.28794 24Z" fill="white"/>
</svg>
